<svg width="1024" height="1024" viewBox="0 0 1024 1024" fill="none" xmlns="http://www.w3.org/2000/svg">
  <defs>
    <linearGradient id="appbg" x1="0" y1="0" x2="1024" y2="1024" gradientUnits="userSpaceOnUse">
      <stop offset="0%" stop-color="#3B82F6"/>
      <stop offset="100%" stop-color="#1D4ED8"/>
    </linearGradient>
  </defs>
  <!-- Background -->
  <rect width="1024" height="1024" rx="224" fill="url(#appbg)"/>
  <!-- Building 1 - tall left -->
  <rect x="200" y="280" width="240" height="480" rx="32" fill="white" opacity="0.22"/>
  <!-- Building 2 - medium right -->
  <rect x="584" y="368" width="240" height="392" rx="32" fill="white" opacity="0.15"/>
  <!-- Windows B1 -->
  <rect x="248" y="344" width="52" height="44" rx="10" fill="white" opacity="0.8"/>
  <rect x="332" y="344" width="52" height="44" rx="10" fill="white" opacity="0.8"/>
  <rect x="248" y="416" width="52" height="44" rx="10" fill="white" opacity="0.8"/>
  <rect x="332" y="416" width="52" height="44" rx="10" fill="white" opacity="0.65"/>
  <rect x="248" y="488" width="52" height="44" rx="10" fill="white" opacity="0.8"/>
  <rect x="332" y="488" width="52" height="44" rx="10" fill="white" opacity="0.8"/>
  <!-- Lit window accent -->
  <rect x="332" y="416" width="52" height="44" rx="10" fill="#FCD34D" opacity="0.7"/>
  <!-- Windows B2 -->
  <rect x="632" y="428" width="52" height="40" rx="10" fill="white" opacity="0.7"/>
  <rect x="716" y="428" width="52" height="40" rx="10" fill="white" opacity="0.7"/>
  <rect x="632" y="500" width="52" height="40" rx="10" fill="white" opacity="0.6"/>
  <rect x="716" y="500" width="52" height="40" rx="10" fill="#FCD34D" opacity="0.6"/>
  <!-- Growth bars at base -->
  <rect x="248" y="632" width="58" height="128" rx="14" fill="#34D399"/>
  <rect x="330" y="584" width="58" height="176" rx="14" fill="#34D399"/>
  <rect x="412" y="536" width="58" height="224" rx="14" fill="#FCD34D"/>
  <rect x="632" y="576" width="58" height="184" rx="14" fill="#34D399" opacity="0.9"/>
  <rect x="714" y="520" width="58" height="240" rx="14" fill="#FCD34D" opacity="0.9"/>
  <!-- Trend line -->
  <polyline points="277,625 359,577 441,529 661,569 743,512" fill="none" stroke="white" stroke-width="12" stroke-linecap="round" stroke-linejoin="round" opacity="0.5"/>
  <circle cx="743" cy="512" r="20" fill="white" opacity="0.7"/>
</svg>
