<svg width="1920" height="1080" viewBox="0 0 1920 1080" fill="none" xmlns="http://www.w3.org/2000/svg">
  <defs>
    <linearGradient id="heroBg" x1="0" y1="0" x2="1920" y2="1080" gradientUnits="userSpaceOnUse">
      <stop offset="0%" stop-color="#0F172A"/>
      <stop offset="55%" stop-color="#1E3A8A"/>
      <stop offset="100%" stop-color="#1E40AF"/>
    </linearGradient>
    <linearGradient id="cardGrad" x1="0" y1="0" x2="0" y2="1" gradientUnits="objectBoundingBox">
      <stop offset="0%" stop-color="#ffffff" stop-opacity="0.12"/>
      <stop offset="100%" stop-color="#ffffff" stop-opacity="0.04"/>
    </linearGradient>
    <linearGradient id="greenBar" x1="0" y1="1" x2="0" y2="0" gradientUnits="objectBoundingBox">
      <stop offset="0%" stop-color="#059669"/>
      <stop offset="100%" stop-color="#34D399"/>
    </linearGradient>
    <linearGradient id="amberBar" x1="0" y1="1" x2="0" y2="0" gradientUnits="objectBoundingBox">
      <stop offset="0%" stop-color="#D97706"/>
      <stop offset="100%" stop-color="#FCD34D"/>
    </linearGradient>
  </defs>
  <!-- Background -->
  <rect width="1920" height="1080" fill="url(#heroBg)"/>
  <!-- Subtle grid -->
  <g opacity="0.04" stroke="white" stroke-width="1">
    <line x1="0" y1="120" x2="1920" y2="120"/><line x1="0" y1="240" x2="1920" y2="240"/>
    <line x1="0" y1="360" x2="1920" y2="360"/><line x1="0" y1="480" x2="1920" y2="480"/>
    <line x1="0" y1="600" x2="1920" y2="600"/><line x1="0" y1="720" x2="1920" y2="720"/>
    <line x1="0" y1="840" x2="1920" y2="840"/><line x1="0" y1="960" x2="1920" y2="960"/>
    <line x1="160" y1="0" x2="160" y2="1080"/><line x1="320" y1="0" x2="320" y2="1080"/>
    <line x1="480" y1="0" x2="480" y2="1080"/><line x1="640" y1="0" x2="640" y2="1080"/>
    <line x1="800" y1="0" x2="800" y2="1080"/><line x1="960" y1="0" x2="960" y2="1080"/>
    <line x1="1120" y1="0" x2="1120" y2="1080"/><line x1="1280" y1="0" x2="1280" y2="1080"/>
    <line x1="1440" y1="0" x2="1440" y2="1080"/><line x1="1600" y1="0" x2="1600" y2="1080"/>
    <line x1="1760" y1="0" x2="1760" y2="1080"/>
  </g>
  <!-- Glow accents -->
  <circle cx="300" cy="540" r="500" fill="#3B82F6" opacity="0.07"/>
  <circle cx="1620" cy="400" r="400" fill="#10B981" opacity="0.06"/>
  <!-- Buildings -->
  <rect x="1060" y="200" width="100" height="750" rx="4" fill="white" opacity="0.06" stroke="white" stroke-width="0.5" stroke-opacity="0.2"/>
  <g fill="white" opacity="0.3">
    <rect x="1070" y="220" width="16" height="12" rx="2"/><rect x="1094" y="220" width="16" height="12" rx="2"/>
    <rect x="1118" y="220" width="16" height="12" rx="2"/><rect x="1070" y="244" width="16" height="12" rx="2"/>
    <rect x="1094" y="244" width="16" height="12" rx="2"/><rect x="1118" y="244" width="16" height="12" rx="2"/>
    <rect x="1070" y="268" width="16" height="12" rx="2"/><rect x="1094" y="268" width="16" height="12" rx="2"/>
    <rect x="1118" y="268" width="16" height="12" rx="2"/>
  </g>
  <rect x="1094" y="292" width="16" height="12" rx="2" fill="#FCD34D" opacity="0.7"/>
  <rect x="1200" y="360" width="80" height="590" rx="4" fill="white" opacity="0.05" stroke="white" stroke-width="0.5" stroke-opacity="0.18"/>
  <rect x="1340" y="480" width="70" height="470" rx="4" fill="white" opacity="0.04" stroke="white" stroke-width="0.5" stroke-opacity="0.15"/>
  <rect x="940" y="340" width="80" height="610" rx="4" fill="white" opacity="0.04" stroke="white" stroke-width="0.5" stroke-opacity="0.15"/>
  <rect x="1460" y="520" width="90" height="430" rx="4" fill="white" opacity="0.04"/>
  <rect x="1600" y="400" width="120" height="550" rx="4" fill="white" opacity="0.03"/>
  <line x1="900" y1="950" x2="1920" y2="950" stroke="white" stroke-width="0.5" opacity="0.12"/>
  <!-- Dashboard card -->
  <rect x="120" y="160" width="780" height="460" rx="20" fill="url(#cardGrad)" stroke="white" stroke-width="0.5" stroke-opacity="0.15"/>
  <rect x="120" y="160" width="780" height="56" rx="20" fill="white" fill-opacity="0.08"/>
  <rect x="120" y="196" width="780" height="20" fill="white" fill-opacity="0.04"/>
  <circle cx="148" cy="188" r="5" fill="#EF4444" opacity="0.7"/>
  <circle cx="166" cy="188" r="5" fill="#F59E0B" opacity="0.7"/>
  <circle cx="184" cy="188" r="5" fill="#10B981" opacity="0.7"/>
  <rect x="200" y="182" width="120" height="12" rx="3" fill="white" opacity="0.3"/>
  <!-- Metric cards -->
  <rect x="144" y="240" width="168" height="88" rx="12" fill="white" fill-opacity="0.1" stroke="white" stroke-width="0.5" stroke-opacity="0.2"/>
  <rect x="328" y="240" width="168" height="88" rx="12" fill="white" fill-opacity="0.1" stroke="white" stroke-width="0.5" stroke-opacity="0.2"/>
  <rect x="512" y="240" width="168" height="88" rx="12" fill="white" fill-opacity="0.1" stroke="white" stroke-width="0.5" stroke-opacity="0.2"/>
  <rect x="696" y="240" width="168" height="88" rx="12" fill="white" fill-opacity="0.1" stroke="white" stroke-width="0.5" stroke-opacity="0.2"/>
  <rect x="160" y="256" width="72" height="8" rx="2" fill="white" opacity="0.3"/>
  <rect x="160" y="276" width="96" height="16" rx="3" fill="white" opacity="0.7"/>
  <rect x="160" y="300" width="60" height="8" rx="2" fill="#34D399" opacity="0.8"/>
  <rect x="344" y="256" width="72" height="8" rx="2" fill="white" opacity="0.3"/>
  <rect x="344" y="276" width="96" height="16" rx="3" fill="white" opacity="0.7"/>
  <rect x="344" y="300" width="60" height="8" rx="2" fill="#FCD34D" opacity="0.8"/>
  <rect x="528" y="256" width="72" height="8" rx="2" fill="white" opacity="0.3"/>
  <rect x="528" y="276" width="96" height="16" rx="3" fill="white" opacity="0.7"/>
  <rect x="528" y="300" width="60" height="8" rx="2" fill="#34D399" opacity="0.8"/>
  <rect x="712" y="256" width="72" height="8" rx="2" fill="white" opacity="0.3"/>
  <rect x="712" y="276" width="80" height="16" rx="3" fill="white" opacity="0.7"/>
  <rect x="712" y="300" width="50" height="8" rx="2" fill="#F87171" opacity="0.7"/>
  <!-- Chart area -->
  <rect x="144" y="352" width="508" height="220" rx="12" fill="white" fill-opacity="0.06" stroke="white" stroke-width="0.5" stroke-opacity="0.15"/>
  <line x1="168" y1="372" x2="168" y2="548" stroke="white" stroke-width="0.5" opacity="0.3"/>
  <line x1="168" y1="548" x2="632" y2="548" stroke="white" stroke-width="0.5" opacity="0.3"/>
  <rect x="196" y="460" width="28" height="88" rx="4" fill="url(#greenBar)" opacity="0.85"/>
  <rect x="252" y="430" width="28" height="118" rx="4" fill="url(#greenBar)" opacity="0.85"/>
  <rect x="308" y="480" width="28" height="68" rx="4" fill="url(#greenBar)" opacity="0.85"/>
  <rect x="364" y="400" width="28" height="148" rx="4" fill="url(#greenBar)" opacity="0.9"/>
  <rect x="420" y="420" width="28" height="128" rx="4" fill="url(#greenBar)" opacity="0.85"/>
  <rect x="476" y="390" width="28" height="158" rx="4" fill="url(#amberBar)" opacity="0.85"/>
  <rect x="532" y="440" width="28" height="108" rx="4" fill="url(#greenBar)" opacity="0.8"/>
  <rect x="588" y="410" width="28" height="138" rx="4" fill="url(#amberBar)" opacity="0.8"/>
  <polyline points="210,458 266,428 322,480 378,398 434,418 490,388 546,438 602,408" fill="none" stroke="#60A5FA" stroke-width="2.5" opacity="0.7" stroke-linejoin="round"/>
  <circle cx="602" cy="408" r="5" fill="#60A5FA" opacity="0.9"/>
  <!-- Donut chart -->
  <circle cx="748" cy="462" r="72" fill="none" stroke="#34D399" stroke-width="28" stroke-dasharray="226 452" opacity="0.8"/>
  <circle cx="748" cy="462" r="72" fill="none" stroke="#FCD34D" stroke-width="28" stroke-dasharray="113 452" stroke-dashoffset="-226" opacity="0.7"/>
  <circle cx="748" cy="462" r="72" fill="none" stroke="#60A5FA" stroke-width="28" stroke-dasharray="85 452" stroke-dashoffset="-339" opacity="0.6"/>
  <circle cx="748" cy="462" r="44" fill="white" fill-opacity="0.08"/>
  <!-- Logo mark top left -->
  <rect x="1760" y="40" width="100" height="40" rx="10" fill="white" fill-opacity="0.06"/>
  <text x="1780" y="66" font-family="system-ui, Arial, sans-serif" font-size="22" font-weight="700" fill="white" opacity="0.8">ABEM</text>
</svg>
