<svg width="1200" height="280" viewBox="0 0 1200 280" fill="none" xmlns="http://www.w3.org/2000/svg">
  <defs>
    <linearGradient id="dhBg" x1="0" y1="0" x2="1200" y2="280" gradientUnits="userSpaceOnUse">
      <stop offset="0%" stop-color="#1E3A8A"/>
      <stop offset="60%" stop-color="#1D4ED8"/>
      <stop offset="100%" stop-color="#2563EB"/>
    </linearGradient>
    <linearGradient id="gBar" x1="0" y1="1" x2="0" y2="0" gradientUnits="objectBoundingBox">
      <stop offset="0%" stop-color="#059669"/>
      <stop offset="100%" stop-color="#34D399"/>
    </linearGradient>
    <linearGradient id="aBar" x1="0" y1="1" x2="0" y2="0" gradientUnits="objectBoundingBox">
      <stop offset="0%" stop-color="#D97706"/>
      <stop offset="100%" stop-color="#FCD34D"/>
    </linearGradient>
  </defs>
  <rect width="1200" height="280" fill="url(#dhBg)"/>
  <!-- Subtle circles bg -->
  <circle cx="1050" cy="60" r="220" fill="white" opacity="0.03"/>
  <circle cx="980" cy="200" r="120" fill="#10B981" opacity="0.04"/>
  <circle cx="150" cy="150" r="180" fill="white" opacity="0.02"/>
  <!-- Grid lines faint -->
  <g opacity="0.04" stroke="white" stroke-width="1">
    <line x1="0" y1="70" x2="1200" y2="70"/><line x1="0" y1="140" x2="1200" y2="140"/>
    <line x1="0" y1="210" x2="1200" y2="210"/>
    <line x1="200" y1="0" x2="200" y2="280"/><line x1="400" y1="0" x2="400" y2="280"/>
    <line x1="600" y1="0" x2="600" y2="280"/><line x1="800" y1="0" x2="800" y2="280"/>
    <line x1="1000" y1="0" x2="1000" y2="280"/>
  </g>
  <!-- Breadcrumb -->
  <rect x="40" y="28" width="80" height="10" rx="3" fill="white" opacity="0.25"/>
  <rect x="130" y="28" width="8" height="10" rx="1" fill="white" opacity="0.15"/>
  <rect x="148" y="28" width="100" height="10" rx="3" fill="white" opacity="0.4"/>
  <!-- Page title -->
  <rect x="40" y="52" width="280" height="28" rx="4" fill="white" opacity="0.7"/>
  <!-- Subtitle -->
  <rect x="40" y="92" width="180" height="14" rx="3" fill="white" opacity="0.3"/>
  <!-- CTA buttons -->
  <rect x="40" y="120" width="120" height="36" rx="8" fill="#10B981" opacity="0.9"/>
  <rect x="172" y="120" width="80" height="36" rx="8" fill="white" fill-opacity="0.15" stroke="white" stroke-width="0.5" stroke-opacity="0.4"/>
  <!-- Metric card 1: Total income -->
  <rect x="40" y="176" width="220" height="88" rx="12" fill="white" fill-opacity="0.12" stroke="white" stroke-width="0.5" stroke-opacity="0.25"/>
  <rect x="56" y="192" width="80" height="9" rx="2" fill="white" opacity="0.4"/>
  <rect x="56" y="210" width="120" height="20" rx="3" fill="white" opacity="0.8"/>
  <rect x="56" y="240" width="60" height="9" rx="2" fill="#34D399" opacity="0.8"/>
  <circle cx="228" cy="206" r="18" fill="#10B981" fill-opacity="0.3"/>
  <rect x="220" y="200" width="16" height="12" rx="2" fill="white" opacity="0.6"/>
  <!-- Metric card 2: Total expenses -->
  <rect x="280" y="176" width="220" height="88" rx="12" fill="white" fill-opacity="0.12" stroke="white" stroke-width="0.5" stroke-opacity="0.25"/>
  <rect x="296" y="192" width="80" height="9" rx="2" fill="white" opacity="0.4"/>
  <rect x="296" y="210" width="110" height="20" rx="3" fill="white" opacity="0.8"/>
  <rect x="296" y="240" width="60" height="9" rx="2" fill="#FCD34D" opacity="0.8"/>
  <circle cx="468" cy="206" r="18" fill="#F59E0B" fill-opacity="0.25"/>
  <rect x="460" y="200" width="16" height="12" rx="2" fill="white" opacity="0.6"/>
  <!-- Metric card 3: Overdue (danger) -->
  <rect x="520" y="176" width="220" height="88" rx="12" fill="#EF4444" fill-opacity="0.15" stroke="#EF4444" stroke-width="0.5" stroke-opacity="0.4"/>
  <rect x="536" y="192" width="80" height="9" rx="2" fill="white" opacity="0.4"/>
  <rect x="536" y="210" width="60" height="20" rx="3" fill="white" opacity="0.9"/>
  <rect x="536" y="240" width="80" height="9" rx="2" fill="#FCA5A5" opacity="0.8"/>
  <circle cx="708" cy="206" r="18" fill="#EF4444" fill-opacity="0.3"/>
  <line x1="708" y1="200" x2="708" y2="208" stroke="white" stroke-width="2.5" stroke-linecap="round"/>
  <circle cx="708" cy="213" r="2" fill="white"/>
  <!-- Metric card 4: Buildings -->
  <rect x="760" y="176" width="220" height="88" rx="12" fill="white" fill-opacity="0.12" stroke="white" stroke-width="0.5" stroke-opacity="0.25"/>
  <rect x="776" y="192" width="80" height="9" rx="2" fill="white" opacity="0.4"/>
  <rect x="776" y="210" width="40" height="20" rx="3" fill="white" opacity="0.9"/>
  <rect x="776" y="240" width="70" height="9" rx="2" fill="white" opacity="0.3"/>
  <rect x="942" y="196" width="16" height="20" rx="2" fill="white" opacity="0.5"/>
  <rect x="960" y="201" width="14" height="15" rx="2" fill="white" opacity="0.35"/>
  <!-- Mini chart illustration right side -->
  <rect x="1020" y="36" width="150" height="220" rx="12" fill="white" fill-opacity="0.08" stroke="white" stroke-width="0.5" stroke-opacity="0.2"/>
  <line x1="1036" y1="56" x2="1036" y2="236" stroke="white" stroke-width="0.5" opacity="0.3"/>
  <line x1="1036" y1="236" x2="1152" y2="236" stroke="white" stroke-width="0.5" opacity="0.3"/>
  <rect x="1044" y="176" width="18" height="60" rx="3" fill="url(#gBar)" opacity="0.8"/>
  <rect x="1070" y="156" width="18" height="80" rx="3" fill="url(#gBar)" opacity="0.8"/>
  <rect x="1096" y="186" width="18" height="50" rx="3" fill="url(#aBar)" opacity="0.8"/>
  <rect x="1122" y="146" width="18" height="90" rx="3" fill="url(#gBar)" opacity="0.9"/>
  <polyline points="1053,175 1079,155 1105,185 1131,144" fill="none" stroke="white" stroke-width="2" opacity="0.6" stroke-linejoin="round"/>
  <circle cx="1131" cy="144" r="5" fill="white" opacity="0.8"/>
  <!-- X axis labels placeholder -->
  <rect x="1040" y="242" width="20" height="7" rx="2" fill="white" opacity="0.2"/>
  <rect x="1066" y="242" width="20" height="7" rx="2" fill="white" opacity="0.2"/>
  <rect x="1092" y="242" width="20" height="7" rx="2" fill="white" opacity="0.2"/>
  <rect x="1118" y="242" width="20" height="7" rx="2" fill="white" opacity="0.2"/>
</svg>
