<svg width="1920" height="1080" viewBox="0 0 1920 1080" fill="none" xmlns="http://www.w3.org/2000/svg">
  <defs>
    <linearGradient id="loginBg" x1="0" y1="0" x2="1920" y2="1080" gradientUnits="userSpaceOnUse">
      <stop offset="0%" stop-color="#EFF6FF"/>
      <stop offset="50%" stop-color="#E0F2FE"/>
      <stop offset="100%" stop-color="#DBEAFE"/>
    </linearGradient>
    <linearGradient id="bldG1" x1="0" y1="0" x2="0" y2="1" gradientUnits="objectBoundingBox">
      <stop offset="0%" stop-color="#DBEAFE"/>
      <stop offset="100%" stop-color="#BFDBFE"/>
    </linearGradient>
    <linearGradient id="bldG2" x1="0" y1="0" x2="0" y2="1" gradientUnits="objectBoundingBox">
      <stop offset="0%" stop-color="#EDE9FE"/>
      <stop offset="100%" stop-color="#DDD6FE"/>
    </linearGradient>
  </defs>
  <rect width="1920" height="1080" fill="url(#loginBg)"/>
  <!-- Ground -->
  <rect x="0" y="860" width="1920" height="220" fill="#E0EEFF" opacity="0.5"/>
  <line x1="0" y1="860" x2="1920" y2="860" stroke="#BFDBFE" stroke-width="2"/>

  <!-- Far left building -->
  <rect x="60" y="560" width="180" height="300" rx="8" fill="#E0E7FF" stroke="#A5B4FC" stroke-width="1"/>
  <g fill="#C7D2FE" stroke="#A5B4FC" stroke-width="0.5">
    <rect x="80" y="584" width="30" height="24" rx="4"/><rect x="120" y="584" width="30" height="24" rx="4"/>
    <rect x="160" y="584" width="30" height="24" rx="4"/><rect x="200" y="584" width="30" height="24" rx="4"/>
    <rect x="80" y="624" width="30" height="24" rx="4"/><rect x="120" y="624" width="30" height="24" rx="4"/>
    <rect x="160" y="624" width="30" height="24" rx="4"/><rect x="200" y="624" width="30" height="24" rx="4"/>
  </g>

  <!-- Left building medium -->
  <rect x="280" y="440" width="240" height="420" rx="8" fill="url(#bldG2)" stroke="#C4B5FD" stroke-width="1"/>
  <g fill="#DDD6FE" stroke="#C4B5FD" stroke-width="0.5">
    <rect x="300" y="464" width="40" height="30" rx="4"/><rect x="352" y="464" width="40" height="30" rx="4"/>
    <rect x="404" y="464" width="40" height="30" rx="4"/><rect x="456" y="464" width="40" height="30" rx="4"/>
    <rect x="300" y="510" width="40" height="30" rx="4"/><rect x="352" y="510" width="40" height="30" rx="4"/>
    <rect x="404" y="510" width="40" height="30" rx="4"/><rect x="456" y="510" width="40" height="30" rx="4"/>
    <rect x="300" y="556" width="40" height="30" rx="4"/><rect x="352" y="556" width="40" height="30" rx="4"/>
    <rect x="404" y="556" width="40" height="30" rx="4"/>
  </g>
  <rect x="456" y="510" width="40" height="30" rx="4" fill="#FCD34D" opacity="0.7"/>

  <!-- Center tall building -->
  <rect x="680" y="200" width="320" height="660" rx="8" fill="url(#bldG1)" stroke="#93C5FD" stroke-width="1"/>
  <g fill="#BFDBFE" stroke="#93C5FD" stroke-width="0.5">
    <rect x="702" y="228" width="50" height="38" rx="4"/><rect x="766" y="228" width="50" height="38" rx="4"/>
    <rect x="830" y="228" width="50" height="38" rx="4"/><rect x="894" y="228" width="50" height="38" rx="4"/>
    <rect x="702" y="284" width="50" height="38" rx="4"/><rect x="766" y="284" width="50" height="38" rx="4"/>
    <rect x="830" y="284" width="50" height="38" rx="4"/><rect x="894" y="284" width="50" height="38" rx="4"/>
    <rect x="702" y="340" width="50" height="38" rx="4"/><rect x="766" y="340" width="50" height="38" rx="4"/>
    <rect x="830" y="340" width="50" height="38" rx="4"/><rect x="894" y="340" width="50" height="38" rx="4"/>
    <rect x="702" y="396" width="50" height="38" rx="4"/><rect x="766" y="396" width="50" height="38" rx="4"/>
    <rect x="830" y="396" width="50" height="38" rx="4"/>
  </g>
  <rect x="894" y="340" width="50" height="38" rx="4" fill="#FCD34D" opacity="0.6"/>
  <rect x="766" y="396" width="50" height="38" rx="4" fill="#FCD34D" opacity="0.5"/>
  <!-- Door center building -->
  <rect x="760" y="760" width="100" height="100" rx="4" fill="#93C5FD"/>
  <circle cx="790" cy="815" r="6" fill="#DBEAFE"/>

  <!-- Right building medium -->
  <rect x="1060" y="380" width="240" height="480" rx="8" fill="url(#bldG1)" stroke="#93C5FD" stroke-width="1"/>
  <g fill="#DBEAFE" stroke="#93C5FD" stroke-width="0.5">
    <rect x="1080" y="408" width="40" height="30" rx="4"/><rect x="1132" y="408" width="40" height="30" rx="4"/>
    <rect x="1184" y="408" width="40" height="30" rx="4"/><rect x="1236" y="408" width="40" height="30" rx="4"/>
    <rect x="1080" y="454" width="40" height="30" rx="4"/><rect x="1132" y="454" width="40" height="30" rx="4"/>
    <rect x="1184" y="454" width="40" height="30" rx="4"/><rect x="1236" y="454" width="40" height="30" rx="4"/>
    <rect x="1080" y="500" width="40" height="30" rx="4"/>
  </g>
  <rect x="1236" y="454" width="40" height="30" rx="4" fill="#FCD34D" opacity="0.6"/>

  <!-- Far right building -->
  <rect x="1360" y="480" width="200" height="380" rx="8" fill="url(#bldG2)" stroke="#C4B5FD" stroke-width="1"/>
  <g fill="#DDD6FE" stroke="#C4B5FD" stroke-width="0.5">
    <rect x="1380" y="504" width="32" height="24" rx="4"/><rect x="1424" y="504" width="32" height="24" rx="4"/>
    <rect x="1468" y="504" width="32" height="24" rx="4"/><rect x="1512" y="504" width="32" height="24" rx="4"/>
    <rect x="1380" y="544" width="32" height="24" rx="4"/><rect x="1424" y="544" width="32" height="24" rx="4"/>
    <rect x="1468" y="544" width="32" height="24" rx="4"/>
  </g>

  <!-- Very far right small -->
  <rect x="1620" y="600" width="160" height="260" rx="8" fill="#E0E7FF" stroke="#A5B4FC" stroke-width="1"/>
  <g fill="#C7D2FE" stroke="#A5B4FC" stroke-width="0.5">
    <rect x="1640" y="624" width="28" height="20" rx="3"/><rect x="1680" y="624" width="28" height="20" rx="3"/>
    <rect x="1720" y="624" width="28" height="20" rx="3"/>
    <rect x="1640" y="658" width="28" height="20" rx="3"/><rect x="1680" y="658" width="28" height="20" rx="3"/>
  </g>

  <!-- Floating card 1: Payment confirmed -->
  <rect x="1020" y="120" width="280" height="120" rx="16" fill="white" opacity="0.92"/>
  <rect x="1020" y="120" width="280" height="120" rx="16" fill="none" stroke="#A7F3D0" stroke-width="1.5"/>
  <circle cx="1060" cy="170" r="22" fill="#D1FAE5"/>
  <path d="M1050 170l7 7 14-14" stroke="#10B981" stroke-width="3" stroke-linecap="round" stroke-linejoin="round" fill="none"/>
  <rect x="1094" y="150" width="140" height="14" rx="4" fill="#1F2937" opacity="0.6"/>
  <rect x="1094" y="174" width="100" height="12" rx="3" fill="#6B7280" opacity="0.4"/>
  <rect x="1094" y="196" width="80" height="12" rx="3" fill="#34D399" opacity="0.6"/>

  <!-- Floating card 2: Analytics -->
  <rect x="220" y="100" width="200" height="100" rx="16" fill="white" opacity="0.9"/>
  <rect x="220" y="100" width="200" height="100" rx="16" fill="none" stroke="#BFDBFE" stroke-width="1.5"/>
  <rect x="240" y="118" width="100" height="12" rx="3" fill="#6B7280" opacity="0.4"/>
  <rect x="240" y="140" width="140" height="22" rx="4" fill="#2563EB" opacity="0.6"/>
  <rect x="240" y="172" width="80" height="12" rx="3" fill="#10B981" opacity="0.5"/>

  <!-- Floating card 3: Balance -->
  <rect x="1480" y="200" width="220" height="100" rx="16" fill="white" opacity="0.88"/>
  <rect x="1480" y="200" width="220" height="100" rx="16" fill="none" stroke="#DBEAFE" stroke-width="1.5"/>
  <rect x="1500" y="218" width="90" height="12" rx="3" fill="#6B7280" opacity="0.4"/>
  <rect x="1500" y="240" width="140" height="22" rx="4" fill="#2563EB" opacity="0.5"/>
  <rect x="1500" y="272" width="70" height="12" rx="3" fill="#34D399" opacity="0.6"/>

  <!-- Subtle floating dots -->
  <circle cx="640" cy="160" r="6" fill="#93C5FD" opacity="0.5"/>
  <circle cx="680" cy="100" r="4" fill="#93C5FD" opacity="0.35"/>
  <circle cx="1300" cy="180" r="5" fill="#A7F3D0" opacity="0.4"/>
  <circle cx="1340" cy="120" r="3" fill="#FCD34D" opacity="0.4"/>
  <circle cx="400" cy="320" r="4" fill="#C4B5FD" opacity="0.35"/>
</svg>
